<svg width="2937px" height="260px"
 viewBox="0.00 0.00 2937.47 260.00" xmlns="http://www.w3.org/2000/svg" xmlns:xlink="http://www.w3.org/1999/xlink">
<g id="graph0" class="graph" transform="scale(1.0 1.0) rotate(0.0) translate(4.0 256.0)">
<title>implementation</title>
<polygon fill="white" stroke="transparent" points="-4,4 -4,-256 2933.47,-256 2933.47,4 -4,4"/>
<!-- debugAndroidTestCompileClasspath (r) -->
<g id="node1" class="node">
<title>debugAndroidTestCompileClasspath (r)</title>
<ellipse fill="none" stroke="black" cx="164.44" cy="-162" rx="164.37" ry="18"/>
<text text-anchor="middle" x="164.44" y="-158.3" font-family="arial" font-size="14.00">debugAndroidTestCompileClasspath (r)</text>
</g>
<!-- debugImplementation (nr) -->
<g id="node2" class="node">
<title>debugImplementation (nr)</title>
<ellipse fill="none" stroke="black" cx="839.44" cy="-90" rx="112.38" ry="18"/>
<text text-anchor="middle" x="839.44" y="-86.3" font-family="arial" font-size="14.00">debugImplementation (nr)</text>
</g>
<!-- debugAndroidTestCompileClasspath (r)&#45;&gt;debugImplementation (nr) -->
<g id="edge1" class="edge link&#45;class">
<title>debugAndroidTestCompileClasspath (r)&#45;&gt;debugImplementation (nr)</title>
<path fill="none" stroke="black" d="M279.32,-149.09C407.99,-135.74 614.57,-114.32 737.64,-101.56"/>
<polygon fill="black" stroke="black" points="738.23,-105.01 747.82,-100.5 737.51,-98.05 738.23,-105.01"/>
</g>
<!-- implementation (nr) -->
<g id="node3" class="node">
<title>implementation (nr)</title>
<ellipse fill="none" stroke="black" cx="1446.44" cy="-18" rx="87.18" ry="18"/>
<text text-anchor="middle" x="1446.44" y="-14.3" font-family="arial" font-size="14.00">implementation (nr)</text>
</g>
<!-- debugAndroidTestCompileClasspath (r)&#45;&gt;implementation (nr) -->
<g id="edge2" class="edge link&#45;class">
<title>debugAndroidTestCompileClasspath (r)&#45;&gt;implementation (nr)</title>
<path fill="none" stroke="black" d="M226.42,-145.32C309.73,-124.9 462.72,-89.75 595.44,-72 867.32,-35.65 1191.49,-24.15 1349.79,-20.58"/>
<polygon fill="black" stroke="black" points="1350.06,-24.07 1359.98,-20.35 1349.9,-17.07 1350.06,-24.07"/>
</g>
<!-- debugImplementation (nr)&#45;&gt;implementation (nr) -->
<g id="edge5" class="edge link&#45;class">
<title>debugImplementation (nr)&#45;&gt;implementation (nr)</title>
<path fill="none" stroke="black" d="M927.7,-78.82C1044.2,-65.39 1247.87,-41.9 1362.28,-28.71"/>
<polygon fill="black" stroke="black" points="1362.85,-32.16 1372.39,-27.54 1362.05,-25.21 1362.85,-32.16"/>
</g>
<!-- debugCompileClasspath (r) -->
<g id="node4" class="node">
<title>debugCompileClasspath (r)</title>
<ellipse fill="none" stroke="black" cx="465.44" cy="-162" rx="118.08" ry="18"/>
<text text-anchor="middle" x="465.44" y="-158.3" font-family="arial" font-size="14.00">debugCompileClasspath (r)</text>
</g>
<!-- debugCompileClasspath (r)&#45;&gt;debugImplementation (nr) -->
<g id="edge3" class="edge link&#45;class">
<title>debugCompileClasspath (r)&#45;&gt;debugImplementation (nr)</title>
<path fill="none" stroke="black" d="M537.1,-147.59C600.65,-135.69 693.36,-118.34 759.34,-105.99"/>
<polygon fill="black" stroke="black" points="760.09,-109.41 769.28,-104.13 758.8,-102.53 760.09,-109.41"/>
</g>
<!-- debugCompileClasspath (r)&#45;&gt;implementation (nr) -->
<g id="edge4" class="edge link&#45;class">
<title>debugCompileClasspath (r)&#45;&gt;implementation (nr)</title>
<path fill="none" stroke="black" d="M501.85,-144.72C550.24,-123.91 638.89,-88.58 718.44,-72 836.74,-47.34 1182.86,-30.01 1351.66,-22.77"/>
<polygon fill="black" stroke="black" points="1351.94,-26.26 1361.78,-22.34 1351.64,-19.27 1351.94,-26.26"/>
</g>
<!-- debugRuntimeClasspath (r) -->
<g id="node5" class="node">
<title>debugRuntimeClasspath (r)</title>
<ellipse fill="none" stroke="black" cx="1175.44" cy="-162" rx="118.08" ry="18"/>
<text text-anchor="middle" x="1175.44" y="-158.3" font-family="arial" font-size="14.00">debugRuntimeClasspath (r)</text>
</g>
<!-- debugRuntimeClasspath (r)&#45;&gt;debugImplementation (nr) -->
<g id="edge6" class="edge link&#45;class">
<title>debugRuntimeClasspath (r)&#45;&gt;debugImplementation (nr)</title>
<path fill="none" stroke="black" d="M1108.65,-147.09C1052.75,-135.44 973.01,-118.83 914.82,-106.71"/>
<polygon fill="black" stroke="black" points="915.45,-103.26 904.95,-104.65 914.03,-110.11 915.45,-103.26"/>
</g>
<!-- debugRuntimeClasspath (r)&#45;&gt;implementation (nr) -->
<g id="edge7" class="edge link&#45;class">
<title>debugRuntimeClasspath (r)&#45;&gt;implementation (nr)</title>
<path fill="none" stroke="black" d="M1206.79,-144.57C1256.31,-118.62 1352.57,-68.19 1406.81,-39.76"/>
<polygon fill="black" stroke="black" points="1408.55,-42.8 1415.78,-35.06 1405.3,-36.6 1408.55,-42.8"/>
</g>
<!-- debugUnitTestCompileClasspath (r) -->
<g id="node6" class="node">
<title>debugUnitTestCompileClasspath (r)</title>
<ellipse fill="none" stroke="black" cx="1461.44" cy="-162" rx="149.47" ry="18"/>
<text text-anchor="middle" x="1461.44" y="-158.3" font-family="arial" font-size="14.00">debugUnitTestCompileClasspath (r)</text>
</g>
<!-- debugUnitTestCompileClasspath (r)&#45;&gt;debugImplementation (nr) -->
<g id="edge8" class="edge link&#45;class">
<title>debugUnitTestCompileClasspath (r)&#45;&gt;debugImplementation (nr)</title>
<path fill="none" stroke="black" d="M1356.27,-149.17C1239.59,-136.03 1052.74,-115.01 938.55,-102.15"/>
<polygon fill="black" stroke="black" points="938.75,-98.65 928.42,-101.01 937.96,-105.61 938.75,-98.65"/>
</g>
<!-- debugUnitTestCompileClasspath (r)&#45;&gt;implementation (nr) -->
<g id="edge9" class="edge link&#45;class">
<title>debugUnitTestCompileClasspath (r)&#45;&gt;implementation (nr)</title>
<path fill="none" stroke="black" d="M1409.71,-145.05C1392.19,-136.9 1374.52,-125 1364.44,-108 1356.27,-94.24 1356.79,-86.05 1364.44,-72 1372.01,-58.08 1385,-47.25 1398.43,-39.12"/>
<polygon fill="black" stroke="black" points="1400.26,-42.11 1407.26,-34.16 1396.83,-36.01 1400.26,-42.11"/>
</g>
<!-- implementationDependenciesMetadata (r) -->
<g id="node7" class="node">
<title>implementationDependenciesMetadata (r)</title>
<ellipse fill="none" stroke="black" cx="1548.44" cy="-90" rx="175.47" ry="18"/>
<text text-anchor="middle" x="1548.44" y="-86.3" font-family="arial" font-size="14.00">implementationDependenciesMetadata (r)</text>
</g>
<!-- implementationDependenciesMetadata (r)&#45;&gt;implementation (nr) -->
<g id="edge10" class="edge link&#45;class">
<title>implementationDependenciesMetadata (r)&#45;&gt;implementation (nr)</title>
<path fill="none" stroke="black" d="M1523.74,-72.05C1510.24,-62.79 1493.35,-51.19 1478.8,-41.21"/>
<polygon fill="black" stroke="black" points="1480.77,-38.32 1470.55,-35.55 1476.81,-44.09 1480.77,-38.32"/>
</g>
<!-- releaseCompileClasspath (r) -->
<g id="node8" class="node">
<title>releaseCompileClasspath (r)</title>
<ellipse fill="none" stroke="black" cx="1751.44" cy="-162" rx="122.38" ry="18"/>
<text text-anchor="middle" x="1751.44" y="-158.3" font-family="arial" font-size="14.00">releaseCompileClasspath (r)</text>
</g>
<!-- releaseCompileClasspath (r)&#45;&gt;implementation (nr) -->
<g id="edge12" class="edge link&#45;class">
<title>releaseCompileClasspath (r)&#45;&gt;implementation (nr)</title>
<path fill="none" stroke="black" d="M1752.96,-143.96C1753.75,-123.83 1751.68,-90.73 1732.44,-72 1705.26,-45.55 1611.54,-31.89 1538.7,-25.12"/>
<polygon fill="black" stroke="black" points="1538.84,-21.62 1528.57,-24.21 1538.22,-28.59 1538.84,-21.62"/>
</g>
<!-- releaseImplementation (nr) -->
<g id="node9" class="node">
<title>releaseImplementation (nr)</title>
<ellipse fill="none" stroke="black" cx="2010.44" cy="-90" rx="116.18" ry="18"/>
<text text-anchor="middle" x="2010.44" y="-86.3" font-family="arial" font-size="14.00">releaseImplementation (nr)</text>
</g>
<!-- releaseCompileClasspath (r)&#45;&gt;releaseImplementation (nr) -->
<g id="edge11" class="edge link&#45;class">
<title>releaseCompileClasspath (r)&#45;&gt;releaseImplementation (nr)</title>
<path fill="none" stroke="black" d="M1807.32,-145.9C1847.88,-134.93 1902.87,-120.07 1945.4,-108.58"/>
<polygon fill="black" stroke="black" points="1946.36,-111.94 1955.1,-105.96 1944.53,-105.19 1946.36,-111.94"/>
</g>
<!-- releaseImplementation (nr)&#45;&gt;implementation (nr) -->
<g id="edge13" class="edge link&#45;class">
<title>releaseImplementation (nr)&#45;&gt;implementation (nr)</title>
<path fill="none" stroke="black" d="M1922.62,-78.1C1815.09,-64.76 1634.34,-42.32 1529.18,-29.27"/>
<polygon fill="black" stroke="black" points="1529.6,-25.79 1519.24,-28.04 1528.74,-32.74 1529.6,-25.79"/>
</g>
<!-- releaseRuntimeClasspath (r) -->
<g id="node10" class="node">
<title>releaseRuntimeClasspath (r)</title>
<ellipse fill="none" stroke="black" cx="2480.44" cy="-162" rx="122.68" ry="18"/>
<text text-anchor="middle" x="2480.44" y="-158.3" font-family="arial" font-size="14.00">releaseRuntimeClasspath (r)</text>
</g>
<!-- releaseRuntimeClasspath (r)&#45;&gt;implementation (nr) -->
<g id="edge15" class="edge link&#45;class">
<title>releaseRuntimeClasspath (r)&#45;&gt;implementation (nr)</title>
<path fill="none" stroke="black" d="M2431.32,-145.41C2364.93,-125.02 2242.53,-89.79 2135.44,-72 1925.94,-37.2 1676.74,-25.18 1542.9,-21.08"/>
<polygon fill="black" stroke="black" points="1542.78,-17.58 1532.68,-20.78 1542.57,-24.58 1542.78,-17.58"/>
</g>
<!-- releaseRuntimeClasspath (r)&#45;&gt;releaseImplementation (nr) -->
<g id="edge14" class="edge link&#45;class">
<title>releaseRuntimeClasspath (r)&#45;&gt;releaseImplementation (nr)</title>
<path fill="none" stroke="black" d="M2397.76,-148.69C2314.66,-136.31 2186.89,-117.28 2101.07,-104.5"/>
<polygon fill="black" stroke="black" points="2101.48,-101.02 2091.08,-103.01 2100.45,-107.95 2101.48,-101.02"/>
</g>
<!-- releaseUnitTestCompileClasspath (r) -->
<g id="node11" class="node">
<title>releaseUnitTestCompileClasspath (r)</title>
<ellipse fill="none" stroke="black" cx="2775.44" cy="-162" rx="154.07" ry="18"/>
<text text-anchor="middle" x="2775.44" y="-158.3" font-family="arial" font-size="14.00">releaseUnitTestCompileClasspath (r)</text>
</g>
<!-- releaseUnitTestCompileClasspath (r)&#45;&gt;implementation (nr) -->
<g id="edge17" class="edge link&#45;class">
<title>releaseUnitTestCompileClasspath (r)&#45;&gt;implementation (nr)</title>
<path fill="none" stroke="black" d="M2699.34,-146.27C2594.12,-126.44 2398.08,-91.41 2229.44,-72 1982.25,-43.55 1689.28,-28.72 1541.63,-22.56"/>
<polygon fill="black" stroke="black" points="1541.39,-19.04 1531.26,-22.13 1541.1,-26.04 1541.39,-19.04"/>
</g>
<!-- releaseUnitTestCompileClasspath (r)&#45;&gt;releaseImplementation (nr) -->
<g id="edge16" class="edge link&#45;class">
<title>releaseUnitTestCompileClasspath (r)&#45;&gt;releaseImplementation (nr)</title>
<path fill="none" stroke="black" d="M2665.86,-149.33C2648.01,-147.5 2629.71,-145.66 2612.44,-144 2440.64,-127.48 2241.06,-110.31 2120.33,-100.14"/>
<polygon fill="black" stroke="black" points="2120.6,-96.65 2110.34,-99.3 2120.01,-103.63 2120.6,-96.65"/>
</g>
<!-- debugImplementationDependenciesMetadata (r) -->
<g id="node12" class="node">
<title>debugImplementationDependenciesMetadata (r)</title>
<ellipse fill="none" stroke="black" cx="839.44" cy="-162" rx="200.36" ry="18"/>
<text text-anchor="middle" x="839.44" y="-158.3" font-family="arial" font-size="14.00">debugImplementationDependenciesMetadata (r)</text>
</g>
<!-- debugImplementationDependenciesMetadata (r)&#45;&gt;debugImplementation (nr) -->
<g id="edge18" class="edge link&#45;class">
<title>debugImplementationDependenciesMetadata (r)&#45;&gt;debugImplementation (nr)</title>
<path fill="none" stroke="black" d="M839.44,-143.7C839.44,-135.98 839.44,-126.71 839.44,-118.11"/>
<polygon fill="black" stroke="black" points="842.94,-118.1 839.44,-108.1 835.94,-118.1 842.94,-118.1"/>
</g>
<!-- debugRuntimeElements (nr) -->
<g id="node13" class="node">
<title>debugRuntimeElements (nr)</title>
<ellipse fill="none" stroke="black" cx="893.44" cy="-234" rx="121.58" ry="18"/>
<text text-anchor="middle" x="893.44" y="-230.3" font-family="arial" font-size="14.00">debugRuntimeElements (nr)</text>
</g>
<!-- debugRuntimeElements (nr)&#45;&gt;debugImplementation (nr) -->
<g id="edge20" class="edge link&#45;class">
<title>debugRuntimeElements (nr)&#45;&gt;debugImplementation (nr)</title>
<path fill="none" stroke="black" d="M787.47,-225.14C723.47,-217.93 650.5,-204.51 630.44,-180 594.13,-135.64 666.42,-112.96 735.7,-101.65"/>
<polygon fill="black" stroke="black" points="736.55,-105.06 745.89,-100.06 735.47,-98.14 736.55,-105.06"/>
</g>
<!-- debugRuntimeElements (nr)&#45;&gt;debugRuntimeClasspath (r) -->
<g id="edge19" class="edge link&#45;class">
<title>debugRuntimeElements (nr)&#45;&gt;debugRuntimeClasspath (r)</title>
<path fill="none" stroke="black" d="M952.9,-218.24C997.85,-207.08 1059.66,-191.74 1106.73,-180.05"/>
<polygon fill="black" stroke="black" points="1107.68,-183.43 1116.54,-177.62 1105.99,-176.63 1107.68,-183.43"/>
</g>
<!-- releaseImplementationDependenciesMetadata (r) -->
<g id="node14" class="node">
<title>releaseImplementationDependenciesMetadata (r)</title>
<ellipse fill="none" stroke="black" cx="2134.44" cy="-162" rx="204.96" ry="18"/>
<text text-anchor="middle" x="2134.44" y="-158.3" font-family="arial" font-size="14.00">releaseImplementationDependenciesMetadata (r)</text>
</g>
<!-- releaseImplementationDependenciesMetadata (r)&#45;&gt;releaseImplementation (nr) -->
<g id="edge21" class="edge link&#45;class">
<title>releaseImplementationDependenciesMetadata (r)&#45;&gt;releaseImplementation (nr)</title>
<path fill="none" stroke="black" d="M2104.42,-144.05C2087.69,-134.61 2066.69,-122.76 2048.79,-112.65"/>
<polygon fill="black" stroke="black" points="2050.18,-109.42 2039.75,-107.55 2046.74,-115.51 2050.18,-109.42"/>
</g>
<!-- releaseRuntimeElements (nr) -->
<g id="node15" class="node">
<title>releaseRuntimeElements (nr)</title>
<ellipse fill="none" stroke="black" cx="2190.44" cy="-234" rx="126.18" ry="18"/>
<text text-anchor="middle" x="2190.44" y="-230.3" font-family="arial" font-size="14.00">releaseRuntimeElements (nr)</text>
</g>
<!-- releaseRuntimeElements (nr)&#45;&gt;releaseImplementation (nr) -->
<g id="edge23" class="edge link&#45;class">
<title>releaseRuntimeElements (nr)&#45;&gt;releaseImplementation (nr)</title>
<path fill="none" stroke="black" d="M2079.87,-225.32C2014.61,-218.23 1940.88,-204.85 1920.44,-180 1910.27,-167.64 1912.5,-157.89 1920.44,-144 1928.41,-130.05 1941.64,-119.41 1955.54,-111.46"/>
<polygon fill="black" stroke="black" points="1957.51,-114.38 1964.72,-106.61 1954.24,-108.19 1957.51,-114.38"/>
</g>
<!-- releaseRuntimeElements (nr)&#45;&gt;releaseRuntimeClasspath (r) -->
<g id="edge22" class="edge link&#45;class">
<title>releaseRuntimeElements (nr)&#45;&gt;releaseRuntimeClasspath (r)</title>
<path fill="none" stroke="black" d="M2251.58,-218.24C2297.76,-207.09 2361.21,-191.78 2409.6,-180.1"/>
<polygon fill="black" stroke="black" points="2410.47,-183.49 2419.37,-177.74 2408.83,-176.68 2410.47,-183.49"/>
</g>
</g>
</svg>
